<mxfile host="app.diagrams.net" modified="2023-10-04T02:32:23.429Z" agent="Mozilla/5.0 (Windows NT 10.0; Win64; x64) AppleWebKit/537.36 (KHTML, like Gecko) Chrome/117.0.0.0 Safari/537.36" etag="sscKvDnswMC_XcMYiPGY" version="22.0.2" type="github">
  <diagram name="Halaman-1" id="E8sYtzVngG_8io2cWtnr">
    <mxGraphModel dx="1050" dy="525" grid="1" gridSize="10" guides="1" tooltips="1" connect="1" arrows="1" fold="1" page="1" pageScale="1" pageWidth="827" pageHeight="1169" math="0" shadow="0">
      <root>
        <mxCell id="0" />
        <mxCell id="1" parent="0" />
        <mxCell id="fR98WNdKqGZT7-A8O1td-12" value="MULAI" style="ellipse;whiteSpace=wrap;html=1;" parent="1" vertex="1">
          <mxGeometry x="335" y="30" width="110" height="70" as="geometry" />
        </mxCell>
        <mxCell id="fR98WNdKqGZT7-A8O1td-15" value="ANGKA" style="shape=parallelogram;perimeter=parallelogramPerimeter;whiteSpace=wrap;html=1;fixedSize=1;" parent="1" vertex="1">
          <mxGeometry x="310" y="190" width="162.5" height="50" as="geometry" />
        </mxCell>
        <mxCell id="fR98WNdKqGZT7-A8O1td-16" value="TEBAKAN" style="shape=parallelogram;perimeter=parallelogramPerimeter;whiteSpace=wrap;html=1;fixedSize=1;" parent="1" vertex="1">
          <mxGeometry x="305.63" y="330" width="171.25" height="50" as="geometry" />
        </mxCell>
        <mxCell id="fR98WNdKqGZT7-A8O1td-18" value="" style="endArrow=classic;html=1;rounded=0;" parent="1" edge="1">
          <mxGeometry width="50" height="50" relative="1" as="geometry">
            <mxPoint x="390" y="100" as="sourcePoint" />
            <mxPoint x="390" y="190" as="targetPoint" />
            <Array as="points">
              <mxPoint x="390" y="100" />
            </Array>
          </mxGeometry>
        </mxCell>
        <mxCell id="fR98WNdKqGZT7-A8O1td-21" value="" style="endArrow=classic;html=1;rounded=0;exitX=0.5;exitY=1;exitDx=0;exitDy=0;entryX=0.5;entryY=0;entryDx=0;entryDy=0;" parent="1" source="fR98WNdKqGZT7-A8O1td-15" target="fR98WNdKqGZT7-A8O1td-16" edge="1">
          <mxGeometry width="50" height="50" relative="1" as="geometry">
            <mxPoint x="390" y="310" as="sourcePoint" />
            <mxPoint x="440" y="260" as="targetPoint" />
          </mxGeometry>
        </mxCell>
        <mxCell id="fR98WNdKqGZT7-A8O1td-22" value="MENEBAK" style="rounded=1;whiteSpace=wrap;html=1;" parent="1" vertex="1">
          <mxGeometry x="330" y="470" width="120" height="60" as="geometry" />
        </mxCell>
        <mxCell id="fR98WNdKqGZT7-A8O1td-24" value="" style="endArrow=classic;html=1;rounded=0;exitX=0.5;exitY=1;exitDx=0;exitDy=0;entryX=0.5;entryY=0;entryDx=0;entryDy=0;" parent="1" source="fR98WNdKqGZT7-A8O1td-16" target="fR98WNdKqGZT7-A8O1td-22" edge="1">
          <mxGeometry width="50" height="50" relative="1" as="geometry">
            <mxPoint x="390" y="440" as="sourcePoint" />
            <mxPoint x="440" y="390" as="targetPoint" />
          </mxGeometry>
        </mxCell>
        <mxCell id="fR98WNdKqGZT7-A8O1td-25" value="TEBAKAN=ANGKA" style="rhombus;whiteSpace=wrap;html=1;" parent="1" vertex="1">
          <mxGeometry x="321.89" y="620" width="138.74" height="105" as="geometry" />
        </mxCell>
        <mxCell id="fR98WNdKqGZT7-A8O1td-54" style="edgeStyle=orthogonalEdgeStyle;rounded=0;orthogonalLoop=1;jettySize=auto;html=1;exitX=0.5;exitY=0;exitDx=0;exitDy=0;entryX=1;entryY=0.5;entryDx=0;entryDy=0;" parent="1" source="fR98WNdKqGZT7-A8O1td-27" target="fR98WNdKqGZT7-A8O1td-16" edge="1">
          <mxGeometry relative="1" as="geometry" />
        </mxCell>
        <mxCell id="fR98WNdKqGZT7-A8O1td-27" value="ANGKA SAYA LEBIH BESAR" style="shape=parallelogram;perimeter=parallelogramPerimeter;whiteSpace=wrap;html=1;fixedSize=1;" parent="1" vertex="1">
          <mxGeometry x="560" y="845" width="140" height="60" as="geometry" />
        </mxCell>
        <mxCell id="fR98WNdKqGZT7-A8O1td-28" value="" style="endArrow=classic;html=1;rounded=0;exitX=0.5;exitY=1;exitDx=0;exitDy=0;" parent="1" source="fR98WNdKqGZT7-A8O1td-22" target="fR98WNdKqGZT7-A8O1td-25" edge="1">
          <mxGeometry width="50" height="50" relative="1" as="geometry">
            <mxPoint x="400" y="570" as="sourcePoint" />
            <mxPoint x="450" y="520" as="targetPoint" />
          </mxGeometry>
        </mxCell>
        <mxCell id="fR98WNdKqGZT7-A8O1td-30" value="TEBAKAN&amp;lt;ANGKA" style="rhombus;whiteSpace=wrap;html=1;" parent="1" vertex="1">
          <mxGeometry x="320" y="820" width="130" height="110" as="geometry" />
        </mxCell>
        <mxCell id="fR98WNdKqGZT7-A8O1td-44" style="edgeStyle=none;rounded=0;orthogonalLoop=1;jettySize=auto;html=1;exitX=1;exitY=0.5;exitDx=0;exitDy=0;entryX=1;entryY=0.5;entryDx=0;entryDy=0;" parent="1" source="fR98WNdKqGZT7-A8O1td-31" target="fR98WNdKqGZT7-A8O1td-16" edge="1">
          <mxGeometry relative="1" as="geometry">
            <Array as="points">
              <mxPoint x="740" y="1085" />
              <mxPoint x="740" y="730" />
              <mxPoint x="740" y="360" />
            </Array>
          </mxGeometry>
        </mxCell>
        <mxCell id="fR98WNdKqGZT7-A8O1td-31" value="ANGKA SAYA LEBIH KECIL" style="shape=parallelogram;perimeter=parallelogramPerimeter;whiteSpace=wrap;html=1;fixedSize=1;" parent="1" vertex="1">
          <mxGeometry x="560" y="1055" width="140" height="60" as="geometry" />
        </mxCell>
        <mxCell id="fR98WNdKqGZT7-A8O1td-47" style="edgeStyle=orthogonalEdgeStyle;rounded=0;orthogonalLoop=1;jettySize=auto;html=1;exitX=0.5;exitY=1;exitDx=0;exitDy=0;" parent="1" source="fR98WNdKqGZT7-A8O1td-32" edge="1">
          <mxGeometry relative="1" as="geometry">
            <mxPoint x="170" y="710" as="targetPoint" />
          </mxGeometry>
        </mxCell>
        <mxCell id="fR98WNdKqGZT7-A8O1td-32" value="TEBAKAN&amp;gt;ANGKA" style="rhombus;whiteSpace=wrap;html=1;" parent="1" vertex="1">
          <mxGeometry x="321.89" y="1030" width="130" height="110" as="geometry" />
        </mxCell>
        <mxCell id="fR98WNdKqGZT7-A8O1td-33" value="" style="endArrow=classic;html=1;rounded=0;exitX=0.5;exitY=1;exitDx=0;exitDy=0;entryX=0.555;entryY=-0.011;entryDx=0;entryDy=0;entryPerimeter=0;" parent="1" source="fR98WNdKqGZT7-A8O1td-25" target="fR98WNdKqGZT7-A8O1td-30" edge="1">
          <mxGeometry width="50" height="50" relative="1" as="geometry">
            <mxPoint x="400" y="910" as="sourcePoint" />
            <mxPoint x="450" y="860" as="targetPoint" />
          </mxGeometry>
        </mxCell>
        <mxCell id="fR98WNdKqGZT7-A8O1td-34" value="NO" style="edgeLabel;html=1;align=center;verticalAlign=middle;resizable=0;points=[];" parent="fR98WNdKqGZT7-A8O1td-33" vertex="1" connectable="0">
          <mxGeometry x="-0.2918" y="1" relative="1" as="geometry">
            <mxPoint as="offset" />
          </mxGeometry>
        </mxCell>
        <mxCell id="fR98WNdKqGZT7-A8O1td-35" value="" style="endArrow=classic;html=1;rounded=0;entryX=0;entryY=0.5;entryDx=0;entryDy=0;exitX=1;exitY=0.5;exitDx=0;exitDy=0;" parent="1" source="fR98WNdKqGZT7-A8O1td-30" target="fR98WNdKqGZT7-A8O1td-27" edge="1">
          <mxGeometry width="50" height="50" relative="1" as="geometry">
            <mxPoint x="400" y="910" as="sourcePoint" />
            <mxPoint x="450" y="860" as="targetPoint" />
          </mxGeometry>
        </mxCell>
        <mxCell id="fR98WNdKqGZT7-A8O1td-36" value="YES" style="edgeLabel;html=1;align=center;verticalAlign=middle;resizable=0;points=[];" parent="fR98WNdKqGZT7-A8O1td-35" vertex="1" connectable="0">
          <mxGeometry x="-0.0533" relative="1" as="geometry">
            <mxPoint as="offset" />
          </mxGeometry>
        </mxCell>
        <mxCell id="fR98WNdKqGZT7-A8O1td-39" value="" style="endArrow=classic;html=1;rounded=0;exitX=1;exitY=0.5;exitDx=0;exitDy=0;" parent="1" source="fR98WNdKqGZT7-A8O1td-32" target="fR98WNdKqGZT7-A8O1td-31" edge="1">
          <mxGeometry width="50" height="50" relative="1" as="geometry">
            <mxPoint x="400" y="910" as="sourcePoint" />
            <mxPoint x="450" y="860" as="targetPoint" />
          </mxGeometry>
        </mxCell>
        <mxCell id="fR98WNdKqGZT7-A8O1td-40" value="YES" style="edgeLabel;html=1;align=center;verticalAlign=middle;resizable=0;points=[];" parent="fR98WNdKqGZT7-A8O1td-39" vertex="1" connectable="0">
          <mxGeometry x="-0.2331" y="2" relative="1" as="geometry">
            <mxPoint as="offset" />
          </mxGeometry>
        </mxCell>
        <mxCell id="fR98WNdKqGZT7-A8O1td-58" style="edgeStyle=orthogonalEdgeStyle;rounded=0;orthogonalLoop=1;jettySize=auto;html=1;exitX=0.25;exitY=1;exitDx=0;exitDy=0;entryX=0.5;entryY=1;entryDx=0;entryDy=0;" parent="1" source="fR98WNdKqGZT7-A8O1td-45" target="fR98WNdKqGZT7-A8O1td-55" edge="1">
          <mxGeometry relative="1" as="geometry" />
        </mxCell>
        <mxCell id="fR98WNdKqGZT7-A8O1td-45" value="BENAR" style="shape=parallelogram;perimeter=parallelogramPerimeter;whiteSpace=wrap;html=1;fixedSize=1;" parent="1" vertex="1">
          <mxGeometry x="120" y="642.5" width="120" height="60" as="geometry" />
        </mxCell>
        <mxCell id="fR98WNdKqGZT7-A8O1td-49" value="" style="endArrow=classic;html=1;rounded=0;exitX=0;exitY=0.5;exitDx=0;exitDy=0;" parent="1" source="fR98WNdKqGZT7-A8O1td-25" edge="1">
          <mxGeometry width="50" height="50" relative="1" as="geometry">
            <mxPoint x="220" y="710" as="sourcePoint" />
            <mxPoint x="240" y="670" as="targetPoint" />
          </mxGeometry>
        </mxCell>
        <mxCell id="fR98WNdKqGZT7-A8O1td-50" value="YES" style="edgeLabel;html=1;align=center;verticalAlign=middle;resizable=0;points=[];" parent="fR98WNdKqGZT7-A8O1td-49" vertex="1" connectable="0">
          <mxGeometry x="-0.0133" y="-2" relative="1" as="geometry">
            <mxPoint as="offset" />
          </mxGeometry>
        </mxCell>
        <mxCell id="fR98WNdKqGZT7-A8O1td-55" value="END" style="ellipse;whiteSpace=wrap;html=1;aspect=fixed;rotation=-178;" parent="1" vertex="1">
          <mxGeometry x="50" y="780" width="80" height="80" as="geometry" />
        </mxCell>
        <mxCell id="fR98WNdKqGZT7-A8O1td-60" value="" style="endArrow=classic;html=1;rounded=0;entryX=0.5;entryY=0;entryDx=0;entryDy=0;exitX=0.5;exitY=1;exitDx=0;exitDy=0;" parent="1" source="fR98WNdKqGZT7-A8O1td-30" target="fR98WNdKqGZT7-A8O1td-32" edge="1">
          <mxGeometry width="50" height="50" relative="1" as="geometry">
            <mxPoint x="280" y="870" as="sourcePoint" />
            <mxPoint x="330" y="820" as="targetPoint" />
          </mxGeometry>
        </mxCell>
        <mxCell id="fR98WNdKqGZT7-A8O1td-61" value="NO" style="edgeLabel;html=1;align=center;verticalAlign=middle;resizable=0;points=[];" parent="fR98WNdKqGZT7-A8O1td-60" vertex="1" connectable="0">
          <mxGeometry x="-0.2299" y="-3" relative="1" as="geometry">
            <mxPoint as="offset" />
          </mxGeometry>
        </mxCell>
      </root>
    </mxGraphModel>
  </diagram>
</mxfile>
